<?xml version="1.0" encoding="utf-8"?>
<!-- Generator: Adobe Illustrator 22.0.0, SVG Export Plug-In . SVG Version: 6.00 Build 0)  -->
<svg version="1.1" id="Layer_1" xmlns="http://www.w3.org/2000/svg" xmlns:xlink="http://www.w3.org/1999/xlink" x="0px" y="0px"
	 viewBox="0 0 216 216" style="enable-background:new 0 0 216 216;" xml:space="preserve">
<style type="text/css">
	.st0{fill:#020304;}
</style>
<path class="st0" d="M181.7,32.2c0.6,0.8,2.3,3,2.3,6.1c0,2.9-1.5,4.8-2.9,6.6c-2.8,3.6-6.2,4.9-7.1,5.3c-1.7,0.6-3.7,1.3-6,0.5
	c-1.6-0.6-2.6-1.8-3.2-2.5c-1.3-1.2-3-2.8-5.1-4.5c-0.6-0.5-3-2.4-6.8-4.8c-1.8-1.1-5.6-3.5-10.6-5.9c-9-4.2-16.7-5.8-19.3-6.3
	c-2.5-0.5-9.7-1.8-19.1-1.4c-6.1,0.2-10.8,1-13.2,1.5C73.7,30,61.8,38,57.9,40.8c-3.6,2.6-10.9,8.2-17.8,17.2
	c-3.9,5.1-16.7,22.1-18,47.7c-1.2,23,7.5,40.4,12.6,48.8c9.9,16.1,22.6,24.7,27.6,27.8c22.3,13.7,44.2,12.9,50.7,12.4
	c4.9-0.4,35.1-3.1,57.3-28.4c16.5-18.9,19.7-40.1,20.6-47.1c0.7-5.4,0.8-9.9,0.8-13.2c0.2-0.9,0.7-2.2,1.7-3.4
	c3.2-4.3,10.5-6.5,16-3.3c4.6,2.7,5.6,7.8,5.8,8.6c0.3,1.7,0.2,3.2,0.1,4.2c-0.3,4.9-1,11.3-2.5,18.5c-0.5,2.3-2.6,11.7-6.4,21.1
	c-8.8,21.4-24.3,35.7-26.9,38.2c-6.9,6.3-25.2,21.3-53.4,26.3c-5.7,1-18.3,2.8-34.1,0.5c-26.1-3.7-43.8-16-49.6-20.3
	c-25.4-18.9-34.9-43.5-37.7-51.9c-3.1-9.2-9.3-31.5-3-58.9c1.9-8.4,9.1-34.9,33.8-56.6c5.1-4.5,35.3-30.2,79.8-26.7
	C151.6,5.2,174.9,25.7,181.7,32.2z"/>
<path class="st0" d="M95.5,54.8c0.3-1.8,1.3-3.1,1.3-3.1c1.4-2,3.7-2.8,5.2-3.2c3.7,0,7.5,0,11.2,0c0.7,0.1,2.3,0.4,3.8,1.6
	c1.9,1.5,2.6,3.3,2.8,4c0.1,14.6,0.2,29.1,0.3,43.7c14.1,0,28.2,0.1,42.3,0.1c0.7,0.1,2.5,0.4,4.2,1.8c2,1.6,2.6,3.7,2.7,4.4
	c0,3.7,0,7.4,0,11.1c-0.1,0.7-0.4,2.6-1.9,4.4c-2,2.2-4.5,2.6-5.1,2.6c-14,0-28.1,0.1-42.1,0.1c0,13.8,0,27.5,0,41.3
	c0,0.6,0,3-1.8,5.1c-1.7,2-3.8,2.4-4.4,2.5c-3.8,0-7.6,0-11.4,0c-0.7-0.1-2.4-0.5-4-1.8c-1.9-1.6-2.4-3.7-2.6-4.4
	c-0.1-14.3-0.2-28.6-0.3-42.8c-14.2,0-28.4,0-42.7,0c-0.7-0.1-2.5-0.5-4.2-2.1c-1.8-1.6-2.3-3.6-2.4-4.3c0-3.7,0-7.5,0-11.2
	c0.1-0.7,0.4-2.1,1.4-3.5c1.5-2.1,3.6-2.7,4.3-2.9c14.5-0.1,29-0.3,43.5-0.4C94.8,75.1,94.8,58.4,95.5,54.8z"/>
</svg>
